<svg width="960" height="720" viewBox="0 0 960 720" fill="none" xmlns="http://www.w3.org/2000/svg">
  <defs>
    <linearGradient id="panel" x1="120" y1="80" x2="840" y2="640" gradientUnits="userSpaceOnUse">
      <stop stop-color="#4F46E5" stop-opacity="0.12"/>
      <stop offset="0.5" stop-color="#7C3AED" stop-opacity="0.14"/>
      <stop offset="1" stop-color="#0EA5E9" stop-opacity="0.12"/>
    </linearGradient>
  </defs>
  <rect width="960" height="720" rx="32" fill="#F8FAFC"/>
  <rect x="120" y="90" width="720" height="540" rx="28" fill="url(#panel)"/>
  <rect x="180" y="150" width="260" height="380" rx="20" fill="white"/>
  <rect x="210" y="190" width="140" height="16" rx="8" fill="#94A3B8"/>
  <rect x="210" y="224" width="180" height="12" rx="6" fill="#CBD5E1"/>
  <rect x="210" y="260" width="200" height="200" rx="14" fill="#EEF2FF"/>
  <rect x="480" y="150" width="300" height="160" rx="20" fill="white"/>
  <rect x="510" y="190" width="160" height="16" rx="8" fill="#94A3B8"/>
  <rect x="510" y="228" width="220" height="54" rx="12" fill="#E0F2FE"/>
  <rect x="480" y="340" width="300" height="190" rx="20" fill="white"/>
  <circle cx="560" cy="430" r="46" fill="#4F46E5"/>
  <circle cx="640" cy="430" r="46" fill="#7C3AED"/>
  <circle cx="720" cy="430" r="46" fill="#0EA5E9"/>
</svg>